<?xml version="1.0" encoding="UTF-8" standalone="no"?>
<svg xmlns:dc="http://purl.org/dc/elements/1.1/" xmlns:cc="http://creativecommons.org/ns#" xmlns:rdf="http://www.w3.org/1999/02/22-rdf-syntax-ns#" xmlns:svg="http://www.w3.org/2000/svg" xmlns="http://www.w3.org/2000/svg" id="svg10372" version="1.1" viewBox="0 0 105.888 40" height="40mm" width="105.888mm">
  <defs id="defs10366"/>
  <metadata id="metadata10369">
    <rdf:RDF>
      <cc:Work rdf:about="">
        <dc:format>image/svg+xml</dc:format>
        <dc:type rdf:resource="http://purl.org/dc/dcmitype/StillImage"/>
        <dc:title/>
      </cc:Work>
    </rdf:RDF>
  </metadata>
  <g transform="translate(-5,-5)" id="layer2">
    <rect style="fill:#787878;fill-opacity:1;stroke:none;stroke-width:0.65619504;stroke-linecap:round;stroke-linejoin:round;stroke-miterlimit:4;stroke-dasharray:none;stroke-dashoffset:0;stroke-opacity:1;paint-order:stroke markers fill" id="rect5005" width="4" height="2" x="38.769001" y="38"/>
    <rect y="17" x="38.769001" height="2" width="4" id="rect5003-5" style="fill:#787878;fill-opacity:1;stroke:none;stroke-width:0.65619504;stroke-linecap:round;stroke-linejoin:round;stroke-miterlimit:4;stroke-dasharray:none;stroke-dashoffset:0;stroke-opacity:1;paint-order:stroke markers fill"/>
    <rect ry="1.0000006" rx="1.0000006" y="5" x="5" height="40" width="34.769001" id="rect4819" style="fill:#237bbd;fill-opacity:1;stroke:none;stroke-width:0.46399999;stroke-linecap:round;stroke-linejoin:round;stroke-miterlimit:4;stroke-dasharray:none;stroke-dashoffset:0;stroke-opacity:1;paint-order:stroke markers fill"/>
    <rect y="24" x="64.504997" height="2" width="4" id="rect5017" style="fill:#787878;fill-opacity:1;stroke:none;stroke-width:0.65619504;stroke-linecap:round;stroke-linejoin:round;stroke-miterlimit:4;stroke-dasharray:none;stroke-dashoffset:0;stroke-opacity:1;paint-order:stroke markers fill"/>
    <rect y="10" x="64.504997" height="2" width="4" id="rect5011" style="fill:#787878;fill-opacity:1;stroke:none;stroke-width:0.65619504;stroke-linecap:round;stroke-linejoin:round;stroke-miterlimit:4;stroke-dasharray:none;stroke-dashoffset:0;stroke-opacity:1;paint-order:stroke markers fill"/>
    <rect ry="0.98735487" rx="0.98756051" y="5" x="41.768997" height="26" width="23.736002" id="rect4821" style="fill:#237bbd;fill-opacity:1;stroke:none;stroke-width:0.45818007;stroke-linecap:round;stroke-linejoin:round;stroke-miterlimit:4;stroke-dasharray:none;stroke-dashoffset:0;stroke-opacity:1;paint-order:stroke markers fill"/>
    <rect ry="0.94734412" rx="1.0245075" y="33" x="41.768997" height="12" width="24.163002" id="rect4823" style="fill:#237bbd;fill-opacity:1;stroke:none;stroke-width:0.45711893;stroke-linecap:round;stroke-linejoin:round;stroke-miterlimit:4;stroke-dasharray:none;stroke-dashoffset:0;stroke-opacity:1;paint-order:stroke markers fill"/>
    <rect ry="0.94734412" rx="1.0073072" y="5" x="67.504997" height="12" width="26.470003" id="rect4825" style="fill:#237bbd;fill-opacity:1;stroke:none;stroke-width:0.45326534;stroke-linecap:round;stroke-linejoin:round;stroke-miterlimit:4;stroke-dasharray:none;stroke-dashoffset:0;stroke-opacity:1;paint-order:stroke markers fill"/>
    <rect ry="0.94741881" rx="1.0576841" y="19" x="67.504997" height="12" width="43.383003" id="rect4827" style="fill:#237bbd;fill-opacity:1;stroke:none;stroke-width:0.46447966;stroke-linecap:round;stroke-linejoin:round;stroke-miterlimit:4;stroke-dasharray:none;stroke-dashoffset:0;stroke-opacity:1;paint-order:stroke markers fill"/>
    <text id="text5021" y="41.046474" x="91.105499" style="font-style:normal;font-variant:normal;font-weight:normal;font-stretch:normal;font-size:10.58333302px;line-height:1.25;font-family:'3ds';-inkscape-font-specification:'3ds';letter-spacing:-1.02129161px;word-spacing:0px;fill:#000000;fill-opacity:1;stroke:none;stroke-width:0.26458332" xml:space="preserve"><tspan style="stroke-width:0.26458332" y="50.836056" x="91.105499" id="tspan5019"/></text>
    <g transform="translate(-3.5824984,5.0209155e-4)" id="text14863-5-8-2-6-7" style="font-style:normal;font-variant:normal;font-weight:normal;font-stretch:normal;font-size:9.25695801px;line-height:1.25;font-family:'3ds';-inkscape-font-specification:'3ds';letter-spacing:-0.89329648px;word-spacing:0px;fill:#ffffff;fill-opacity:1;stroke:none;stroke-width:0.23142393" aria-label="9"/>
  </g>
  <g transform="translate(-5,-252)" id="layer1">
    <g id="text14863" style="font-style:normal;font-variant:normal;font-weight:normal;font-stretch:normal;font-size:50.29193497px;line-height:1.25;font-family:'3ds';-inkscape-font-specification:'3ds';letter-spacing:-4.85317183px;word-spacing:0px;fill:#ffffff;fill-opacity:1;stroke:none;stroke-width:1.25729835" aria-label="D">
      <path id="path5277" style="font-style:normal;font-variant:normal;font-weight:normal;font-stretch:normal;font-family:'Arial Rounded MT Bold';-inkscape-font-specification:'Arial Rounded MT Bold, ';fill:#ffffff;fill-opacity:1;stroke-width:1.25729835" d="m 11.469303,254.00001 h 9.503407 q 3.708048,0 6.360162,0.68759 2.652114,0.68758 4.813095,2.57844 5.623464,4.8131 5.623464,14.63574 0,3.24147 -0.564802,5.91814 -0.564802,2.67667 -1.74352,4.83765 -1.178717,2.13643 -3.020462,3.83083 -1.44884,1.30151 -3.167803,2.08732 -1.718963,0.78581 -3.708048,1.10504 Q 23.600267,290 21.12005,290 h -9.503408 q -1.9890851,0 -2.995906,-0.58936 -1.006821,-0.61391 -1.3260569,-1.6944 -0.2946793,-1.10505 -0.2946793,-2.84857 v -26.39836 q 0,-2.35743 1.0559341,-3.41336 1.0559342,-1.05594 3.4133691,-1.05594 z m 2.82401,5.7708 v 24.43383 h 5.525237 q 1.817189,0 2.848566,-0.0982 1.031378,-0.0982 2.136425,-0.49113 1.105048,-0.3929 1.915416,-1.10505 3.658934,-3.09413 3.658934,-10.65756 0,-5.32879 -1.620736,-7.9809 -1.596179,-2.65212 -3.953614,-3.36426 -2.357434,-0.7367 -5.697133,-0.7367 z"/>
    </g>
    <g transform="matrix(0.98508889,0,0,0.98508889,0.65264608,3.7874225)" id="text14863-5" style="font-style:normal;font-variant:normal;font-weight:normal;font-stretch:normal;font-size:30.17019081px;line-height:1.25;font-family:'3ds';-inkscape-font-specification:'3ds';letter-spacing:-2.91142344px;word-spacing:0px;fill:#ffffff;fill-opacity:1;stroke:none;stroke-width:0.75425476" aria-label="A">
      <path id="path5274" style="font-style:normal;font-variant:normal;font-weight:normal;font-stretch:normal;font-family:'Arial Rounded MT Bold';-inkscape-font-specification:'Arial Rounded MT Bold, ';fill:#ffffff;fill-opacity:1;stroke-width:0.75425476" d="m 59.134103,273.51929 -1.031208,-2.71061 h -8.779997 l -1.031207,2.76953 q -0.603993,1.62047 -1.031208,2.195 -0.427215,0.5598 -1.399496,0.5598 -0.824966,0 -1.458422,-0.60399 -0.633457,-0.604 -0.633457,-1.37004 0,-0.44194 0.147316,-0.91335 0.147315,-0.47141 0.486141,-1.31111 l 5.524326,-14.02442 q 0.235705,-0.604 0.559799,-1.44369 0.338825,-0.85443 0.707114,-1.41423 0.38302,-0.5598 0.987013,-0.89863 Q 52.799541,254 53.698165,254 q 0.913356,0 1.517349,0.35355 0.618724,0.33883 0.987013,0.8839 0.38302,0.54506 0.633456,1.17852 0.265168,0.61872 0.662919,1.66466 l 5.642179,13.93604 q 0.66292,1.59101 0.66292,2.31285 0,0.75131 -0.633456,1.38477 -0.618725,0.61872 -1.502617,0.61872 -0.515604,0 -0.883893,-0.19151 -0.368288,-0.17678 -0.618724,-0.48614 -0.250436,-0.32409 -0.545067,-0.97228 -0.279899,-0.66292 -0.486141,-1.16379 z m -8.662145,-5.99574 h 6.452414 l -3.25567,-8.91258 z"/>
    </g>
    <g transform="matrix(0.92304549,0,0,0.92304549,3.3681995,22.316825)" id="text14863-5-8" style="font-style:normal;font-variant:normal;font-weight:normal;font-stretch:normal;font-size:11.7084465px;line-height:1.25;font-family:'3ds';-inkscape-font-specification:'3ds';letter-spacing:-1.12986505px;word-spacing:0px;fill:#ffffff;fill-opacity:1;stroke:none;stroke-width:0.29271114" aria-label="YST">
      <path id="path5267" style="font-style:normal;font-variant:normal;font-weight:normal;font-stretch:normal;font-family:'Arial Rounded MT Bold';-inkscape-font-specification:'Arial Rounded MT Bold, ';letter-spacing:0px;fill:#ffffff;fill-opacity:1;stroke-width:0.29271114" d="m 46.307021,288.96523 v -2.65841 l -2.046691,-3.17294 q -0.2687,-0.42878 -0.38304,-0.66889 -0.108624,-0.24012 -0.108624,-0.41735 0,-0.29156 0.222964,-0.50309 0.228681,-0.21153 0.560267,-0.21153 0.348738,0 0.525966,0.20009 0.182944,0.19438 0.543116,0.78323 l 1.566462,2.54408 1.583613,-2.54408 q 0.142926,-0.23439 0.240115,-0.39447 0.09719,-0.16008 0.21153,-0.29729 0.120057,-0.14292 0.262982,-0.21724 0.142926,-0.0743 0.348738,-0.0743 0.320153,0 0.531683,0.21153 0.217246,0.20581 0.217246,0.48023 0,0.22296 -0.108623,0.44592 -0.108623,0.22297 -0.371606,0.61744 l -2.098145,3.21868 v 2.65841 q 0,0.52025 -0.240114,0.77752 -0.240115,0.25726 -0.611721,0.25726 -0.377323,0 -0.61172,-0.25155 -0.234398,-0.25726 -0.234398,-0.78323 z"/>
      <path id="path5269" style="font-style:normal;font-variant:normal;font-weight:normal;font-stretch:normal;font-family:'Arial Rounded MT Bold';-inkscape-font-specification:'Arial Rounded MT Bold, ';letter-spacing:0px;fill:#ffffff;fill-opacity:1;stroke-width:0.29271114" d="m 57.83824,287.3416 q 0,0.76036 -0.394474,1.36637 -0.388757,0.606 -1.143403,0.94902 -0.754646,0.34302 -1.789426,0.34302 -1.240592,0 -2.046691,-0.46879 -0.571702,-0.33731 -0.931874,-0.89758 -0.354455,-0.56598 -0.354455,-1.09766 0,-0.30872 0.21153,-0.52597 0.217247,-0.22296 0.548833,-0.22296 0.2687,0 0.451645,0.17151 0.188661,0.17151 0.320152,0.50881 0.160077,0.40019 0.343021,0.66889 0.188662,0.2687 0.525966,0.44593 0.337304,0.17151 0.886137,0.17151 0.754646,0 1.223441,-0.34874 0.474512,-0.35445 0.474512,-0.88042 0,-0.41734 -0.257265,-0.6746 -0.251549,-0.26299 -0.657457,-0.40019 -0.400191,-0.13721 -1.074799,-0.29157 -0.903288,-0.21153 -1.515009,-0.49167 -0.606003,-0.28585 -0.966175,-0.77179 -0.354455,-0.49167 -0.354455,-1.21773 0,-0.69176 0.377323,-1.22916 0.377323,-0.53739 1.09195,-0.82325 0.714627,-0.29156 1.680802,-0.29156 0.771797,0 1.332065,0.19438 0.565984,0.18866 0.93759,0.50881 0.371606,0.31444 0.543116,0.66317 0.171511,0.34874 0.171511,0.68033 0,0.303 -0.217247,0.54883 -0.211529,0.24012 -0.531682,0.24012 -0.291568,0 -0.445927,-0.14293 -0.148643,-0.14864 -0.32587,-0.48023 -0.228681,-0.47451 -0.548834,-0.73749 -0.320152,-0.2687 -1.029062,-0.2687 -0.657457,0 -1.063365,0.29156 -0.400191,0.28586 -0.400191,0.69176 0,0.25155 0.137208,0.4345 0.137209,0.18294 0.377323,0.31443 0.240115,0.13149 0.485947,0.20582 0.245831,0.0743 0.811816,0.21724 0.70891,0.1658 1.280611,0.36589 0.577419,0.2001 0.97761,0.48595 0.405908,0.28585 0.628871,0.72606 0.228681,0.43449 0.228681,1.06908 z"/>
      <path id="path5271" style="font-style:normal;font-variant:normal;font-weight:normal;font-stretch:normal;font-family:'Arial Rounded MT Bold';-inkscape-font-specification:'Arial Rounded MT Bold, ';letter-spacing:0px;fill:#ffffff;fill-opacity:1;stroke-width:0.29271114" d="m 64.744394,282.87661 h -1.852313 v 6.08862 q 0,0.52597 -0.234397,0.78323 -0.234398,0.25155 -0.606004,0.25155 -0.377323,0 -0.617438,-0.25726 -0.234397,-0.25727 -0.234397,-0.77752 v -6.08862 h -1.852313 q -0.434493,0 -0.646023,-0.18866 -0.211529,-0.19438 -0.211529,-0.50881 0,-0.32587 0.217246,-0.51454 0.222964,-0.18866 0.640306,-0.18866 h 5.396862 q 0.44021,0 0.65174,0.19438 0.217246,0.19438 0.217246,0.50882 0,0.31443 -0.217246,0.50881 -0.217247,0.18866 -0.65174,0.18866 z"/>
    </g>
    <g transform="matrix(0.94230984,0,0,0.94230984,3.0761546,14.653291)" id="text14863-5-8-0" style="font-style:normal;font-variant:normal;font-weight:normal;font-stretch:normal;font-size:11.7084465px;line-height:1.25;font-family:'3ds';-inkscape-font-specification:'3ds';letter-spacing:-1.12986505px;word-spacing:0px;fill:#ffffff;fill-opacity:1;stroke:none;stroke-width:0.29271114" aria-label="NSK">
      <path id="path5247" style="font-style:normal;font-variant:normal;font-weight:normal;font-stretch:normal;font-family:'Arial Rounded MT Bold';-inkscape-font-specification:'Arial Rounded MT Bold, ';letter-spacing:0px;fill:#ffffff;fill-opacity:1;stroke-width:0.29271114" d="m 72.685374,255.01764 3.264415,4.9395 v -4.98524 q 0,-0.48594 0.205813,-0.72606 0.211529,-0.24583 0.565984,-0.24583 0.365889,0 0.577419,0.24583 0.211529,0.24012 0.211529,0.72606 v 6.59172 q 0,1.10338 -0.914722,1.10338 -0.228681,0 -0.411625,-0.0686 -0.182945,-0.0629 -0.343021,-0.20581 -0.160077,-0.14293 -0.297285,-0.33159 -0.137208,-0.19438 -0.274417,-0.39447 l -3.184377,-4.88233 v 4.91091 q 0,0.48023 -0.222963,0.72606 -0.222964,0.24583 -0.571702,0.24583 -0.360172,0 -0.577418,-0.24583 -0.217247,-0.25155 -0.217247,-0.72606 v -6.46594 q 0,-0.41163 0.09147,-0.64603 0.108623,-0.25726 0.360172,-0.41734 0.251549,-0.16579 0.543117,-0.16579 0.22868,0 0.388757,0.0743 0.165793,0.0743 0.28585,0.2001 0.125775,0.12577 0.251549,0.32587 0.131491,0.20009 0.2687,0.41734 z"/>
      <path id="path5249" style="font-style:normal;font-variant:normal;font-weight:normal;font-stretch:normal;font-family:'Arial Rounded MT Bold';-inkscape-font-specification:'Arial Rounded MT Bold, ';letter-spacing:0px;fill:#ffffff;fill-opacity:1;stroke-width:0.29271114" d="m 85.737318,260.00859 q 0,0.76036 -0.394474,1.36637 -0.388757,0.606 -1.143403,0.94902 -0.754646,0.34302 -1.789425,0.34302 -1.240593,0 -2.046692,-0.46879 -0.571701,-0.33731 -0.931873,-0.89757 -0.354455,-0.56599 -0.354455,-1.09767 0,-0.30872 0.211529,-0.52597 0.217247,-0.22296 0.548834,-0.22296 0.2687,0 0.451644,0.17151 0.188661,0.17151 0.320153,0.50882 0.160076,0.40019 0.343021,0.66889 0.188661,0.2687 0.525965,0.44592 0.337304,0.17151 0.886137,0.17151 0.754646,0 1.223442,-0.34873 0.474512,-0.35446 0.474512,-0.88042 0,-0.41735 -0.257266,-0.67461 -0.251549,-0.26298 -0.657457,-0.40019 -0.400191,-0.13721 -1.074798,-0.29157 -0.903289,-0.21153 -1.515009,-0.49166 -0.606004,-0.28585 -0.966176,-0.7718 -0.354455,-0.49166 -0.354455,-1.21772 0,-0.69176 0.377323,-1.22916 0.377323,-0.5374 1.09195,-0.82325 0.714627,-0.29157 1.680802,-0.29157 0.771797,0 1.332065,0.19438 0.565984,0.18866 0.93759,0.50881 0.371606,0.31444 0.543117,0.66318 0.17151,0.34873 0.17151,0.68032 0,0.303 -0.217246,0.54883 -0.21153,0.24012 -0.531683,0.24012 -0.291567,0 -0.445927,-0.14293 -0.148642,-0.14864 -0.32587,-0.48023 -0.22868,-0.47451 -0.548833,-0.73749 -0.320153,-0.2687 -1.029063,-0.2687 -0.657457,0 -1.063365,0.29157 -0.400191,0.28585 -0.400191,0.69176 0,0.25154 0.137209,0.43449 0.137208,0.18294 0.377323,0.31443 0.240114,0.1315 0.485946,0.20582 0.245832,0.0743 0.811816,0.21724 0.70891,0.1658 1.280611,0.36589 0.577419,0.2001 0.97761,0.48595 0.405908,0.28585 0.628872,0.72606 0.22868,0.43449 0.22868,1.06908 z"/>
      <path id="path5251" style="font-style:normal;font-variant:normal;font-weight:normal;font-stretch:normal;font-family:'Arial Rounded MT Bold';-inkscape-font-specification:'Arial Rounded MT Bold, ';letter-spacing:0px;fill:#ffffff;fill-opacity:1;stroke-width:0.29271114" d="m 88.898827,255.02907 v 2.93855 l 3.33302,-3.47595 q 0.240114,-0.25155 0.405908,-0.3716 0.17151,-0.12006 0.451644,-0.12006 0.365889,0 0.588853,0.21725 0.22868,0.21153 0.22868,0.52024 0,0.37161 -0.38304,0.7375 l -2.063842,1.95522 2.378278,3.40734 q 0.251549,0.35445 0.377323,0.62315 0.125774,0.26299 0.125774,0.51453 0,0.28014 -0.222963,0.48595 -0.217247,0.20581 -0.59457,0.20581 -0.354455,0 -0.577418,-0.14864 -0.222964,-0.15436 -0.377323,-0.40591 -0.15436,-0.25155 -0.274417,-0.45736 l -2.006672,-3.08719 -1.389235,1.33207 v 1.73225 q 0,0.52597 -0.240114,0.78324 -0.240115,0.25154 -0.617438,0.25154 -0.217247,0 -0.417342,-0.11434 -0.200096,-0.11434 -0.308719,-0.30872 -0.08004,-0.16007 -0.09719,-0.3716 -0.01715,-0.21153 -0.01715,-0.61172 v -6.23155 q 0,-0.51453 0.222963,-0.7718 0.228681,-0.25726 0.617438,-0.25726 0.38304,0 0.617438,0.25726 0.240114,0.25155 0.240114,0.7718 z"/>
    </g>
    <g transform="matrix(0.92304146,0,0,0.92304146,5.0730123,20.932262)" id="text14863-5-8-2" style="font-style:normal;font-variant:normal;font-weight:normal;font-stretch:normal;font-size:11.7084465px;line-height:1.25;font-family:'3ds';-inkscape-font-specification:'3ds';letter-spacing:-1.12986505px;word-spacing:0px;fill:#ffffff;fill-opacity:1;stroke:none;stroke-width:0.29271114" aria-label="TALOGI">
      <path id="path5254" style="font-style:normal;font-variant:normal;font-weight:normal;font-stretch:normal;font-family:'Arial Rounded MT Bold';-inkscape-font-specification:'Arial Rounded MT Bold, ';letter-spacing:0px;fill:#ffffff;fill-opacity:1;stroke-width:0.29271114" d="m 76.058416,269.2106 h -1.852313 v 6.08862 q 0,0.52596 -0.234397,0.78323 -0.234398,0.25155 -0.606004,0.25155 -0.377323,0 -0.617437,-0.25727 -0.234398,-0.25727 -0.234398,-0.77751 v -6.08862 h -1.852313 q -0.434493,0 -0.646023,-0.18867 -0.211529,-0.19437 -0.211529,-0.50881 0,-0.32587 0.217246,-0.51453 0.222964,-0.18866 0.640306,-0.18866 h 5.396862 q 0.44021,0 0.65174,0.19438 0.217246,0.19437 0.217246,0.50881 0,0.31444 -0.217246,0.50881 -0.217247,0.18867 -0.65174,0.18867 z"/>
      <path id="path5256" style="font-style:normal;font-variant:normal;font-weight:normal;font-stretch:normal;font-family:'Arial Rounded MT Bold';-inkscape-font-specification:'Arial Rounded MT Bold, ';letter-spacing:0px;fill:#ffffff;fill-opacity:1;stroke-width:0.29271114" d="m 82.564379,275.24205 -0.400191,-1.05193 h -3.407341 l -0.400191,1.07479 q -0.234398,0.62888 -0.400191,0.85184 -0.165794,0.21725 -0.543117,0.21725 -0.320152,0 -0.565984,-0.2344 -0.245832,-0.2344 -0.245832,-0.53168 0,-0.17151 0.05717,-0.35446 0.05717,-0.18294 0.188662,-0.50881 l 2.143881,-5.4426 q 0.09147,-0.2344 0.217246,-0.56027 0.131491,-0.33159 0.274417,-0.54883 0.148642,-0.21725 0.38304,-0.34874 0.240114,-0.13721 0.588852,-0.13721 0.354455,0 0.588853,0.13721 0.240115,0.13149 0.38304,0.34302 0.148642,0.21153 0.245832,0.45736 0.102906,0.24012 0.257265,0.64602 l 2.189617,5.4083 q 0.257266,0.61744 0.257266,0.89757 0,0.29157 -0.245832,0.5374 -0.240115,0.24012 -0.583136,0.24012 -0.200095,0 -0.34302,-0.0743 -0.142926,-0.0686 -0.240115,-0.18866 -0.09719,-0.12577 -0.21153,-0.37732 -0.108623,-0.25727 -0.188661,-0.45164 z m -3.361605,-2.32683 h 2.504053 l -1.263461,-3.45879 z"/>
      <path id="path5258" style="font-style:normal;font-variant:normal;font-weight:normal;font-stretch:normal;font-family:'Arial Rounded MT Bold';-inkscape-font-specification:'Arial Rounded MT Bold, ';letter-spacing:0px;fill:#ffffff;fill-opacity:1;stroke-width:0.29271114" d="m 87.280916,268.69606 v 6.10006 h 3.441643 q 0.411625,0 0.628872,0.20009 0.222963,0.2001 0.222963,0.5031 0,0.30872 -0.217246,0.5031 -0.217247,0.18866 -0.634589,0.18866 h -4.0991 q -0.55455,0 -0.800382,-0.24583 -0.240114,-0.24583 -0.240114,-0.79467 v -6.45451 q 0,-0.51453 0.22868,-0.77179 0.234398,-0.25727 0.611721,-0.25727 0.38304,0 0.617437,0.25727 0.240115,0.25155 0.240115,0.77179 z"/>
      <path id="path5260" style="font-style:normal;font-variant:normal;font-weight:normal;font-stretch:normal;font-family:'Arial Rounded MT Bold';-inkscape-font-specification:'Arial Rounded MT Bold, ';letter-spacing:0px;fill:#ffffff;fill-opacity:1;stroke-width:0.29271114" d="m 95.810703,267.667 q 1.303479,0 2.235352,0.53168 0.937591,0.52597 1.41782,1.50358 0.480229,0.97189 0.480229,2.2868 0,0.9719 -0.262982,1.76656 -0.262983,0.79467 -0.788948,1.3778 -0.525966,0.58314 -1.292046,0.89186 -0.76608,0.30872 -1.755123,0.30872 -0.983327,0 -1.760841,-0.31444 -0.777514,-0.32015 -1.297762,-0.89757 -0.520249,-0.57742 -0.788948,-1.38924 -0.262983,-0.81181 -0.262983,-1.75512 0,-0.96617 0.274417,-1.77227 0.280133,-0.8061 0.806099,-1.37209 0.525965,-0.56598 1.280611,-0.86327 0.754646,-0.303 1.715105,-0.303 z m 2.41258,4.31063 q 0,-0.92044 -0.297285,-1.59505 -0.297285,-0.6746 -0.851835,-1.01763 -0.548834,-0.34873 -1.26346,-0.34873 -0.508815,0 -0.943308,0.19438 -0.428776,0.18866 -0.743212,0.55455 -0.308719,0.36588 -0.491663,0.93759 -0.177228,0.56598 -0.177228,1.27489 0,0.71463 0.177228,1.29205 0.182944,0.57741 0.508814,0.96045 0.331587,0.37733 0.754646,0.56599 0.428776,0.18866 0.937591,0.18866 0.651739,0 1.194856,-0.32587 0.548833,-0.32587 0.868986,-1.00619 0.32587,-0.68033 0.32587,-1.67509 z"/>
      <path id="path5262" style="font-style:normal;font-variant:normal;font-weight:normal;font-stretch:normal;font-family:'Arial Rounded MT Bold';-inkscape-font-specification:'Arial Rounded MT Bold, ';letter-spacing:0px;fill:#ffffff;fill-opacity:1;stroke-width:0.29271114" d="m 109.07418,272.78373 v 1.60648 q 0,0.32015 -0.0629,0.51453 -0.0629,0.18866 -0.2344,0.34302 -0.16579,0.15436 -0.42877,0.29729 -0.76037,0.41162 -1.46356,0.60028 -0.70319,0.18867 -1.53216,0.18867 -0.96618,0 -1.76084,-0.29729 -0.79467,-0.29728 -1.35493,-0.86327 -0.56027,-0.56598 -0.86327,-1.37208 -0.29729,-0.8061 -0.29729,-1.80086 0,-0.97761 0.29157,-1.78943 0.29157,-0.81181 0.85755,-1.3778 0.56599,-0.56598 1.3778,-0.86327 0.81182,-0.303 1.84088,-0.303 0.84612,0 1.49786,0.22868 0.65174,0.22297 1.05765,0.56599 0.40591,0.34302 0.61172,0.72606 0.20581,0.38304 0.20581,0.68032 0,0.32015 -0.24011,0.54884 -0.2344,0.22296 -0.56599,0.22296 -0.18294,0 -0.35445,-0.0858 -0.1658,-0.0857 -0.28014,-0.24011 -0.31443,-0.49166 -0.53168,-0.74321 -0.21725,-0.25155 -0.58885,-0.42306 -0.36589,-0.17151 -0.93759,-0.17151 -0.58885,0 -1.05193,0.20581 -0.46308,0.2001 -0.79467,0.58885 -0.32587,0.38304 -0.50309,0.94331 -0.17152,0.56027 -0.17152,1.24059 0,1.47499 0.67461,2.26966 0.68033,0.79466 1.89233,0.79466 0.58886,0 1.10339,-0.15436 0.52025,-0.15436 1.05193,-0.44021 v -1.36065 h -1.31491 q -0.47452,0 -0.72035,-0.14292 -0.24011,-0.14293 -0.24011,-0.48595 0,-0.28013 0.20009,-0.46308 0.20582,-0.18294 0.55455,-0.18294 h 1.92664 q 0.35445,0 0.60028,0.0629 0.24584,0.0629 0.39448,0.28013 0.15436,0.21725 0.15436,0.65174 z"/>
      <path id="path5264" style="font-style:normal;font-variant:normal;font-weight:normal;font-stretch:normal;font-family:'Arial Rounded MT Bold';-inkscape-font-specification:'Arial Rounded MT Bold, ';letter-spacing:0px;fill:#ffffff;fill-opacity:1;stroke-width:0.29271114" d="m 110.77213,275.29922 v -6.60316 q 0,-0.51453 0.2344,-0.77179 0.23439,-0.25727 0.606,-0.25727 0.38304,0 0.61744,0.25727 0.24011,0.25155 0.24011,0.77179 v 6.60316 q 0,0.52024 -0.24011,0.77751 -0.2344,0.25727 -0.61744,0.25727 -0.36589,0 -0.606,-0.25727 -0.2344,-0.26298 -0.2344,-0.77751 z"/>
    </g>
  </g>
</svg>